<?xml version="1.0" encoding="UTF-8"?>
<svg version="1.1" xmlns="http://www.w3.org/2000/svg" width="653" height="177">
<path d="M0 0 C215.49 0 430.98 0 653 0 C653 58.41 653 116.82 653 177 C437.51 177 222.02 177 0 177 C0 118.59 0 60.18 0 0 Z " fill="#FDFDFE" transform="translate(0,0)"/>
<path d="M0 0 C0.33 0.99 0.66 1.98 1 3 C1.70253906 2.5153125 2.40507812 2.030625 3.12890625 1.53125 C7.90372643 -1.01532076 12.72535924 -0.79724665 18 0 C20.63929635 1.40502282 21.96976883 2.74418759 24 5 C24.78375 4.360625 25.5675 3.72125 26.375 3.0625 C30.91919753 -0.50794092 34.3874059 -0.38953893 40.0703125 -0.35546875 C43 0 43 0 46.1875 2.3125 C48.66055252 5.97943994 49.12382787 8.56840115 49.09765625 12.88671875 C49.09282227 14.2934082 49.09282227 14.2934082 49.08789062 15.72851562 C49.07532227 17.19321289 49.07532227 17.19321289 49.0625 18.6875 C49.05798828 19.67556641 49.05347656 20.66363281 49.04882812 21.68164062 C49.03704303 24.12115474 49.02059011 26.56054689 49 29 C50.65 29 52.3 29 54 29 C54 32.3 54 35.6 54 39 C46.74 39 39.48 39 32 39 C31.67 30.09 31.34 21.18 31 12 C29.35 12 27.7 12 26 12 C25.67 20.91 25.34 29.82 25 39 C19.06 39 13.12 39 7 39 C6.67 30.09 6.34 21.18 6 12 C3.525 11.505 3.525 11.505 1 11 C0.67 20.24 0.34 29.48 0 39 C-7.59 39 -15.18 39 -23 39 C-23 35.7 -23 32.4 -23 29 C-21.35 29 -19.7 29 -18 29 C-18 23.39 -18 17.78 -18 12 C-19.65 12 -21.3 12 -23 12 C-23 8.37 -23 4.74 -23 1 C-15.29509996 0.27483294 -7.73732806 -0.13707865 0 0 Z " fill="#171717" transform="translate(218,74)"/>
<path d="M0 0 C3.0625 2 3.0625 2 5 4 C5.66 4 6.32 4 7 4 C7.66 2.68 8.32 1.36 9 0 C15.27 0 21.54 0 28 0 C28 3.96 28 7.92 28 12 C26.68 12 25.36 12 24 12 C24.0314209 12.83660156 24.0628418 13.67320313 24.09521484 14.53515625 C24.19817776 17.67357015 24.27302787 20.81111671 24.32958984 23.95068359 C24.37419788 25.96380122 24.45048417 27.97613686 24.52734375 29.98828125 C24.63550153 37.16274739 24.48703237 42.06311642 19.6472168 47.58813477 C11.82563854 54.29217909 0.64159875 53.43825449 -9 53 C-11.82067301 52.54054193 -14.27800179 51.88881574 -17 51 C-17 47.7 -17 44.4 -17 41 C-12 41 -12 41 -9.625 42 C-5.18112626 43.69290428 -1.48053464 43.64371071 2.875 41.75 C5.19330344 39.84080893 5.69611836 38.93752254 6 36 C5.21625 36.495 4.4325 36.99 3.625 37.5 C-1.88344266 39.77935558 -7.3078962 40.11195592 -12.875 37.8125 C-18.28558133 33.19759239 -20.48147411 28.73744108 -21.2578125 21.64453125 C-21.62689096 13.70934443 -19.51583919 8.00673464 -14.4375 1.9375 C-9.61858814 -0.77861396 -5.4161705 -0.93296839 0 0 Z " fill="#161616" transform="translate(346,74)"/>
<path d="M0 0 C5.72793491 3.30636893 9.40073712 7.13870762 11.9375 13.25 C13.55249578 22.77847511 12.81179115 30.10998172 7.375 38.1875 C2.36094719 43.09012942 -3.94725384 46.01816388 -11 46.3125 C-17.9788382 46.21076766 -23.49982057 43.68289496 -28.5859375 38.9296875 C-34.46723215 32.42425546 -34.80384763 27.23953301 -34.64453125 18.609375 C-34.23804308 11.39996218 -31.51007013 7.30624991 -26.23828125 2.44921875 C-18.79233228 -3.80150197 -8.72680495 -4.0003357 0 0 Z " fill="#0573D9" transform="translate(106.4375,67.0625)"/>
<path d="M0 0 C0.33 0.99 0.66 1.98 1 3 C1.70125 2.51402344 2.4025 2.02804688 3.125 1.52734375 C7.90115245 -1.00998724 12.7231154 -0.6650921 18 0 C21.73390697 2.0909879 23.39411966 4.10488599 25 8 C25.22705078 10.38183594 25.22705078 10.38183594 25.1953125 12.984375 C25.18886719 13.91894531 25.18242187 14.85351562 25.17578125 15.81640625 C25.15902344 16.78449219 25.14226562 17.75257812 25.125 18.75 C25.11597656 19.73355469 25.10695313 20.71710938 25.09765625 21.73046875 C25.07412785 24.15389407 25.04125368 26.57682222 25 29 C26.65 29 28.3 29 30 29 C30 32.3 30 35.6 30 39 C22.41 39 14.82 39 7 39 C6.67 30.09 6.34 21.18 6 12 C3.525 11.505 3.525 11.505 1 11 C0.67 20.24 0.34 29.48 0 39 C-7.59 39 -15.18 39 -23 39 C-23 35.7 -23 32.4 -23 29 C-21.35 29 -19.7 29 -18 29 C-18 23.39 -18 17.78 -18 12 C-19.65 12 -21.3 12 -23 12 C-23 8.37 -23 4.74 -23 1 C-15.29205268 0.18863712 -7.74842287 -0.12170298 0 0 Z " fill="#181818" transform="translate(433,74)"/>
<path d="M0 0 C0.95519531 -0.02449219 1.91039062 -0.04898438 2.89453125 -0.07421875 C10.06714249 -0.10373567 15.1541979 1.26872985 20.82495117 5.70483398 C22.58897611 7.97106771 22.4697476 9.41388224 22.41796875 12.26171875 C22.4034668 13.6684082 22.4034668 13.6684082 22.38867188 15.10351562 C22.36353516 16.07998047 22.33839844 17.05644531 22.3125 18.0625 C22.29219727 19.54459961 22.29219727 19.54459961 22.27148438 21.05664062 C22.23612203 23.49664231 22.18677033 25.93554719 22.125 28.375 C23.445 28.375 24.765 28.375 26.125 28.375 C26.125 32.005 26.125 35.635 26.125 39.375 C19.855 39.375 13.585 39.375 7.125 39.375 C6.465 38.055 5.805 36.735 5.125 35.375 C4.50625 36.014375 3.8875 36.65375 3.25 37.3125 C-1.0275665 40.13569389 -4.78516484 40.71590796 -9.875 40.375 C-13.36450147 39.23100593 -15.95282794 37.49764425 -18.3125 34.625 C-19.18658717 31.12865132 -19.53452175 27.91058049 -18.875 24.375 C-15.82787606 19.53545021 -13.34671104 17.74292776 -7.875 16.375 C-4.4453125 16.3984375 -4.4453125 16.3984375 -1 16.75 C0.15242188 16.86085938 1.30484375 16.97171875 2.4921875 17.0859375 C3.36101562 17.18132812 4.22984375 17.27671875 5.125 17.375 C4.795 15.725 4.465 14.075 4.125 12.375 C-3.28366616 10.57895972 -9.60817607 11.58624334 -16.875 13.375 C-16.875 9.745 -16.875 6.115 -16.875 2.375 C-11.26129474 0.01232944 -5.98760746 0.00801554 0 0 Z " fill="#151515" transform="translate(484.875,73.625)"/>
<path d="M0 0 C0.91587891 -0.01611328 1.83175781 -0.03222656 2.77539062 -0.04882812 C10.04582951 -0.05404739 14.42605035 1.1501552 20.48046875 5.32421875 C23.59869116 9.79971621 23.1068692 13.81341164 22.875 19.125 C22.85244141 20.10404297 22.82988281 21.08308594 22.80664062 22.09179688 C22.74789727 24.50027455 22.66582129 26.90559078 22.5625 29.3125 C23.5525 29.3125 24.5425 29.3125 25.5625 29.3125 C25.5625 32.6125 25.5625 35.9125 25.5625 39.3125 C22.43698801 39.39317765 19.31354109 39.4528399 16.1875 39.5 C14.85332031 39.53770508 14.85332031 39.53770508 13.4921875 39.57617188 C12.64140625 39.58583984 11.790625 39.59550781 10.9140625 39.60546875 C9.73577881 39.62903442 9.73577881 39.62903442 8.53369141 39.65307617 C7.55795166 39.48449097 7.55795166 39.48449097 6.5625 39.3125 C5.9025 38.3225 5.2425 37.3325 4.5625 36.3125 C4.08941406 36.61285156 3.61632812 36.91320312 3.12890625 37.22265625 C-1.5903255 39.93644449 -4.9835713 40.83878425 -10.38671875 39.93359375 C-13.37876531 39.02743108 -15.28040507 37.53700415 -17.4375 35.3125 C-19.29841735 31.5906653 -19.0055311 27.36530619 -18.4375 23.3125 C-15.69696895 19.55405742 -12.94875021 17.44031255 -8.4375 16.3125 C-3.92974536 16.00496916 0.19852271 16.07554499 4.5625 17.3125 C3.78119929 14.81697516 3.78119929 14.81697516 2.5625 12.3125 C-4.00627092 10.12290969 -9.98033042 11.4675944 -16.4375 13.3125 C-16.4375 9.6825 -16.4375 6.0525 -16.4375 2.3125 C-10.93008477 0.01239813 -5.86571509 -0.02055261 0 0 Z " fill="#161616" transform="translate(294.4375,73.6875)"/>
<path d="M0 0 C9.57 0 19.14 0 29 0 C29 3.96 29 7.92 29 12 C27.35 12 25.7 12 24 12 C24 22.89 24 33.78 24 45 C25.65 45 27.3 45 29 45 C29 48.96 29 52.92 29 57 C19.1 57 9.2 57 -1 57 C-1 52.71 -1 48.42 -1 44 C0.98 44 2.96 44 5 44 C5 33.44 5 22.88 5 12 C3.35 12 1.7 12 0 12 C0 8.04 0 4.08 0 0 Z " fill="#151515" transform="translate(160,56)"/>
<path d="M0 0 C5.32741914 2.70810473 8.1113683 5.53976348 10.21875 11.12890625 C10.21875 14.42890625 10.21875 17.72890625 10.21875 21.12890625 C2.62875 21.12890625 -4.96125 21.12890625 -12.78125 21.12890625 C-12.12125 23.10890625 -11.46125 25.08890625 -10.78125 27.12890625 C-0.59249546 27.45485724 -0.59249546 27.45485724 9.21875 25.12890625 C9.21875 28.42890625 9.21875 31.72890625 9.21875 35.12890625 C0.55123725 39.03778455 -8.64315204 40.98376645 -18.03125 38.12890625 C-22.74768971 36.10618571 -25.89871163 32.27307735 -28.78125 28.12890625 C-30.81275819 22.03438168 -30.60561137 14.79595774 -28.71875 8.69140625 C-21.51904528 -0.83078387 -11.63084326 -3.64280625 0 0 Z " fill="#151515" transform="translate(578.78125,74.87109375)"/>
<path d="M0 0 C0 3.96 0 7.92 0 12 C2.31 12 4.62 12 7 12 C7 15.63 7 19.26 7 23 C4.69 23 2.38 23 0 23 C0.33 27.95 0.66 32.9 1 38 C2.98 38.66 4.96 39.32 7 40 C7 43.3 7 46.6 7 50 C0.75591084 52.5616776 -4.97786045 53.00737985 -11.375 50.875 C-14.72130226 48.4847841 -15.52875921 46.85507732 -17 43 C-17.3484277 39.53077849 -17.28436148 36.10704589 -17.1875 32.625 C-17.17396484 31.69816406 -17.16042969 30.77132812 -17.14648438 29.81640625 C-17.11133881 27.54366002 -17.06214132 25.27214153 -17 23 C-18.98 23 -20.96 23 -23 23 C-23 19.37 -23 15.74 -23 12 C-21.02 12 -19.04 12 -17 12 C-17 9.36 -17 6.72 -17 4 C-15.43840941 3.51787786 -13.87568072 3.03944127 -12.3125 2.5625 C-11.00732422 2.16224609 -11.00732422 2.16224609 -9.67578125 1.75390625 C-6.46684988 0.84978398 -3.34660996 0 0 0 Z " fill="#151515" transform="translate(537,62)"/>
<path d="M0 0 C0 9.24 0 18.48 0 28 C1.32 28 2.64 28 4 28 C4 31.63 4 35.26 4 39 C-4.91 39 -13.82 39 -23 39 C-23 35.37 -23 31.74 -23 28 C-21.35 28 -19.7 28 -18 28 C-18 22.72 -18 17.44 -18 12 C-19.65 12 -21.3 12 -23 12 C-23 8.7 -23 5.4 -23 2 C-19.72934296 1.66485491 -16.45849583 1.33180766 -13.1875 1 C-12.25873047 0.90460938 -11.32996094 0.80921875 -10.37304688 0.7109375 C-9.48037109 0.62070313 -8.58769531 0.53046875 -7.66796875 0.4375 C-6.84578857 0.35371094 -6.0236084 0.26992187 -5.17651367 0.18359375 C-3 0 -3 0 0 0 Z " fill="#151515" transform="translate(401,74)"/>
<path d="M0 0 C15.51 0 31.02 0 47 0 C47.99 2.97 47.99 2.97 49 6 C52.87176814 7.93588407 57.64203958 7.47609565 61.91015625 7.71875 C65 8 65 8 66 9 C66.14115161 11.67058851 66.04247107 14.32432238 66 17 C47.29801784 18.15366078 47.29801784 18.15366078 42.10546875 15.546875 C40.1875 13.6875 40.1875 13.6875 38.52734375 11.7578125 C35.24002296 7.97445097 30.95327561 7.21376477 26.14453125 6.6875 C19.41221216 6.41445284 13.6439567 7.13399303 8 11 C7.60699707 11.48645996 7.21399414 11.97291992 6.80908203 12.47412109 C4.55432992 15.21928381 3.02938802 16.80321977 -0.54150391 17.48583984 C-3.50682542 17.58973506 -6.41178709 17.52411652 -9.375 17.375 C-10.90833984 17.33439453 -10.90833984 17.33439453 -12.47265625 17.29296875 C-14.98396496 17.22255823 -17.49086959 17.12415134 -20 17 C-20.09765625 10.84765625 -20.09765625 10.84765625 -20 9 C-17.63438268 6.63438268 -11.6208683 7.60268704 -8.41796875 7.4765625 C-4.89156089 6.98488049 -3.41884329 6.56526237 -1 4 C-0.67 2.68 -0.34 1.36 0 0 Z " fill="#0674D9" transform="translate(72,56)"/>
<path d="M0 0 C6.27 0 12.54 0 19 0 C18.34 2.31 17.68 4.62 17 7 C15.95002691 15.36662768 17.03971763 22.09146214 22 29 C26.07177612 33.43129639 30.47318924 36.65110543 36 39 C36 39.33 36 39.66 36 40 C31.03377651 40.02465098 26.06758834 40.04283649 21.10131836 40.05493164 C19.41055684 40.0599719 17.71979971 40.06680405 16.02905273 40.07543945 C13.60399293 40.08751857 11.17899056 40.09323123 8.75390625 40.09765625 C7.61327477 40.10539818 7.61327477 40.10539818 6.44960022 40.11329651 C4.6326743 40.11349238 2.81586873 40.06197277 1 40 C0 39 0 39 -0.11352539 35.30639648 C-0.11336624 33.66128708 -0.10766988 32.01617269 -0.09765625 30.37109375 C-0.0962413 29.50686295 -0.09482635 28.64263214 -0.09336853 27.75221252 C-0.08775239 24.98060708 -0.07519719 22.2090812 -0.0625 19.4375 C-0.05748708 17.5631522 -0.05292381 15.68880315 -0.04882812 13.81445312 C-0.03862681 9.20957979 -0.01905467 4.6048794 0 0 Z " fill="#0074D9" transform="translate(52,76)"/>
<path d="M0 0 C5.94 0 11.88 0 18 0 C18.02290785 5.39352589 18.04283526 10.78688421 18.05493164 16.18041992 C18.05997231 18.01668875 18.06680477 19.85295354 18.07543945 21.68920898 C18.08751672 24.32276401 18.09323081 26.95626616 18.09765625 29.58984375 C18.10281754 30.41588608 18.10797882 31.24192841 18.11329651 32.09300232 C18.11349205 34.06236368 18.06204152 36.03161614 18 38 C17 39 17 39 13.67358398 39.11352539 C12.19774444 39.11336629 10.72189931 39.10767314 9.24609375 39.09765625 C8.47064713 39.0962413 7.6952005 39.09482635 6.89625549 39.09336853 C4.40996506 39.08775345 1.9237634 39.07519846 -0.5625 39.0625 C-2.24413933 39.05748694 -3.92578006 39.0529237 -5.60742188 39.04882812 C-9.73831566 39.03777913 -13.86914276 39.02050445 -18 39 C-16.67674074 36.35348149 -15.54764987 36.32500942 -12.8125 35.3125 C-6.61482246 32.64227645 -2.94488621 28.53419843 -0.125 22.4375 C2.21037152 15.44512293 1.76366445 7.05465781 0 0 Z " fill="#0172D8" transform="translate(120,77)"/>
<path d="M0 0 C4.50511599 3.98126529 6.39689569 7.34076986 7.25 13.3125 C6.97675768 18.15548458 4.81820567 21.7626473 1.6875 25.375 C-2.60042837 28.56601646 -6.70587435 28.89481449 -11.91015625 28.73046875 C-16.45665031 28.05773548 -19.17681782 25.66732799 -22.125 22.3125 C-25.08172077 17.48837663 -24.90032343 12.11817599 -23.75 6.75 C-18.19071986 -2.43489762 -9.48359244 -4.65232837 0 0 Z " fill="#0374D9" transform="translate(104.3125,75.625)"/>
<path d="M0 0 C4.17374626 2.9064144 7.32089398 6.51736945 8.9296875 11.34375 C9.66457152 18.23479359 9.09265741 22.75660617 4.9296875 28.34375 C0.3517333 32.94560996 -3.42389496 34.50188593 -9.8828125 34.65625 C-15.15865562 34.59904206 -18.08593662 34.03658618 -22.0703125 30.34375 C-26.35739639 25.75211916 -28.22670422 22.85760957 -28.3203125 16.53125 C-28.34609375 15.49355469 -28.371875 14.45585938 -28.3984375 13.38671875 C-27.75800042 7.44742724 -24.24841403 4.23398325 -19.828125 0.63671875 C-13.43742393 -4.06399693 -6.76507877 -3.68525692 0 0 Z M-21.8828125 5.78125 C-25.32677191 9.81560245 -25.37384452 13.01872493 -25.28515625 18.3203125 C-24.80187094 22.87198138 -22.83160099 25.65673356 -19.5078125 28.65625 C-14.76862252 31.93722768 -10.73538432 31.93828527 -5.0703125 31.34375 C-0.9319062 30.05001093 1.99319028 27.70851232 4.3671875 24.09375 C6.30050797 20.17689294 6.75697397 16.63213291 5.9296875 12.34375 C4.01368339 7.04782853 1.02824373 3.84492853 -4.0703125 1.34375 C-11.5450118 -0.60208734 -16.00382756 0.68612972 -21.8828125 5.78125 Z " fill="#CDE4F7" transform="translate(105.0703125,72.65625)"/>
<path d="M0 0 C5.15625 2.15625 5.15625 2.15625 7 4 C7.69565217 11.07246377 7.69565217 11.07246377 5.125 14.5 C0.76656456 16.59204901 -3.23940051 16.66570985 -8 16 C-11.75 14.5 -11.75 14.5 -13 12 C-13.69064748 4.86330935 -13.69064748 4.86330935 -11 1.5 C-7.24201024 -0.37899488 -4.08330342 -0.68586737 0 0 Z " fill="#171717" transform="translate(395,54)"/>
<path d="M0 0 C6.27 0 12.54 0 19 0 C18.34 2.31 17.68 4.62 17 7 C16.72930303 9.3060317 16.51834657 11.62006375 16.375 13.9375 C16.30023438 15.08089844 16.22546875 16.22429687 16.1484375 17.40234375 C16.09945312 18.25957031 16.05046875 19.11679688 16 20 C15.67 20 15.34 20 15 20 C14.97292861 17.75006641 14.95357171 15.50003905 14.9375 13.25 C14.92589844 11.99703125 14.91429688 10.7440625 14.90234375 9.453125 C15 6 15 6 16 2 C11.38 2 6.76 2 2 2 C2 13.88 2 25.76 2 38 C11.69372424 37.55307364 11.69372424 37.55307364 21.38574219 37.0715332 C22.59391602 37.02343506 23.80208984 36.97533691 25.046875 36.92578125 C26.28276367 36.86817627 27.51865234 36.81057129 28.79199219 36.7512207 C32.24705723 37.01915916 33.53207805 37.64254181 36 40 C31.03377651 40.02465098 26.06758834 40.04283649 21.10131836 40.05493164 C19.41055684 40.0599719 17.71979971 40.06680405 16.02905273 40.07543945 C13.60399293 40.08751857 11.17899056 40.09323123 8.75390625 40.09765625 C7.61327477 40.10539818 7.61327477 40.10539818 6.44960022 40.11329651 C4.6326743 40.11349238 2.81586873 40.06197277 1 40 C0 39 0 39 -0.11352539 35.30639648 C-0.11336624 33.66128708 -0.10766988 32.01617269 -0.09765625 30.37109375 C-0.0962413 29.50686295 -0.09482635 28.64263214 -0.09336853 27.75221252 C-0.08775239 24.98060708 -0.07519719 22.2090812 -0.0625 19.4375 C-0.05748708 17.5631522 -0.05292381 15.68880315 -0.04882812 13.81445312 C-0.03862681 9.20957979 -0.01905467 4.6048794 0 0 Z " fill="#127BDB" transform="translate(52,76)"/>
<path d="M0 0 C2 2 2 2 2.16357422 3.86010742 C2.1276416 4.60107666 2.09170898 5.3420459 2.0546875 6.10546875 C2.03019531 6.92466797 2.00570312 7.74386719 1.98046875 8.58789062 C1.91093364 10.30180236 1.83300062 12.0153969 1.74609375 13.72851562 C1.58593615 19.76268869 2.49229687 23.05129451 6 28 C12.52355336 34.37858551 19.14354941 36.41760302 28 37 C28 37.33 28 37.66 28 38 C26.329375 38.185625 26.329375 38.185625 24.625 38.375 C20.96896323 38.6465813 20.96896323 38.6465813 19 41 C16.27514272 41.17517747 13.65340638 41.23149133 10.9296875 41.1953125 C10.13345978 41.1924826 9.33723206 41.18965271 8.51687622 41.18673706 C5.96943237 41.1755264 3.42233789 41.15042062 0.875 41.125 C-0.85025535 41.11497133 -2.57551619 41.10584528 -4.30078125 41.09765625 C-8.53398914 41.07558422 -12.7669353 41.04104867 -17 41 C-17 40.67 -17 40.34 -17 40 C-6.44 39.67 4.12 39.34 15 39 C12.36 37.35 9.72 35.7 7 34 C1.58547111 29.11254914 -2.55642684 23.5731768 -3.27734375 16.140625 C-3.46916848 9.97154154 -2.96127192 5.42899852 0 0 Z " fill="#CEE4F7" transform="translate(71,76)"/>
<path d="M0 0 C1.24112549 0.01571045 1.24112549 0.01571045 2.50732422 0.03173828 C3.71799561 0.03923096 3.71799561 0.03923096 4.953125 0.046875 C6.49202393 0.07418701 6.49202393 0.07418701 8.06201172 0.10205078 C12.95013672 0.16392578 12.95013672 0.16392578 17.93701172 0.22705078 C17.93701172 13.09705078 17.93701172 25.96705078 17.93701172 39.22705078 C17.60701172 39.22705078 17.27701172 39.22705078 16.93701172 39.22705078 C16.93701172 26.68705078 16.93701172 14.14705078 16.93701172 1.22705078 C8.52201172 1.72205078 8.52201172 1.72205078 -0.06298828 2.22705078 C0.26701172 3.21705078 0.59701172 4.20705078 0.93701172 5.22705078 C1.62749152 15.67719707 1.32875906 23.33723047 -5.37548828 31.53955078 C-8.31685302 34.67865433 -10.88890368 36.89489612 -15.06298828 38.22705078 C-18.43798828 37.91455078 -18.43798828 37.91455078 -21.06298828 37.22705078 C-18.67621905 35.63587129 -16.8421073 34.72266742 -14.25048828 33.66455078 C-9.18295717 31.18688335 -6.57549289 27.16512213 -4.06298828 22.22705078 C-2.22992046 16.67296506 -2.67387306 10.40609603 -3.68798828 4.72705078 C-3.81173828 3.90205078 -3.93548828 3.07705078 -4.06298828 2.22705078 C-2.06298828 0.22705078 -2.06298828 0.22705078 0 0 Z " fill="#D1E6F8" transform="translate(121.06298828125,75.77294921875)"/>
<path d="M0 0 C6.57692308 0.57692308 6.57692308 0.57692308 8 2 C8.15313272 4.4942965 8.23156517 6.94188493 8.25 9.4375 C8.270625 10.13166016 8.29125 10.82582031 8.3125 11.54101562 C8.328125 13.55859375 8.328125 13.55859375 8 17 C4.76746204 19.15502531 3.74849077 19.46856135 0 19 C-1.75 18 -1.75 18 -3 16 C-4.14295737 10.63689235 -4.31348016 7.11400877 -2 2 C-1.34 1.34 -0.68 0.68 0 0 Z " fill="#EEEEEE" transform="translate(345,84)"/>
<path d="M0 0 C1.06745504 1.20395824 2.12953374 2.41269513 3.1875 3.625 C9.54042949 9.77090938 20.73871901 8.08848172 29 8 C29 8.33 29 8.66 29 9 C21.74 9 14.48 9 7 9 C6.67 9.66 6.34 10.32 6 11 C5.54625 10.278125 5.0925 9.55625 4.625 8.8125 C-0.7412558 3.06294022 -6.80098858 0.69304924 -14.625 0.375 C-20.67862894 0.59656139 -24.34264539 2.27167151 -29 6 C-29.99 6.495 -29.99 6.495 -31 7 C-31.66 6.34 -32.32 5.68 -33 5 C-24.14219425 -3.33367523 -11.13847474 -6.95252527 0 0 Z " fill="#CFE5F7" transform="translate(109,65)"/>
<path d="M0 0 C4.32204601 3.26554587 7.20728815 5.72145956 9 11 C9.92070884 17.86553257 9.14011383 22.44353144 5 28 C1.83284203 31.89804058 1.83284203 31.89804058 -1 33 C-5.4056408 33.1102723 -9.64700508 32.65230339 -14 32 C-14 31.67 -14 31.34 -14 31 C-13.19175781 30.91363281 -12.38351563 30.82726562 -11.55078125 30.73828125 C-4.74980761 29.9042803 -4.74980761 29.9042803 1.125 26.625 C1.74375 25.75875 2.3625 24.8925 3 24 C3.6496875 23.1028125 3.6496875 23.1028125 4.3125 22.1875 C5.61106993 18.05568657 5.82640415 14.05176202 4.20703125 10.03125 C2.52195293 6.9839053 0.66106522 4.26190543 -2 2 C-1.34 2 -0.68 2 0 2 C0 1.34 0 0.68 0 0 Z " fill="#DDECFA" transform="translate(105,73)"/>
<path d="M0 0 C6.93 0 13.86 0 21 0 C21.33 1.65 21.66 3.3 22 5 C14.08 5 6.16 5 -2 5 C-1.34 3.35 -0.68 1.7 0 0 Z " fill="#0B72D9" transform="translate(85,48)"/>
<path d="M0 0 C2 2 2 2 2.22705078 4.15478516 C2.21657715 5.02409668 2.20610352 5.8934082 2.1953125 6.7890625 C2.18886719 7.73007813 2.18242188 8.67109375 2.17578125 9.640625 C2.15902344 10.62546875 2.14226562 11.6103125 2.125 12.625 C2.11597656 13.61757812 2.10695313 14.61015625 2.09765625 15.6328125 C2.07404116 18.08878134 2.04110799 20.54427168 2 23 C0.0625 22.6875 0.0625 22.6875 -2 22 C-4.00427112 15.98718663 -4.04697758 8.61285405 -1.5 2.75 C-1.005 1.8425 -0.51 0.935 0 0 Z " fill="#B7D8F4" transform="translate(71,76)"/>
<path d="M0 0 C0.82741699 0.01047363 1.65483398 0.02094727 2.50732422 0.03173828 C3.71799561 0.03923096 3.71799561 0.03923096 4.953125 0.046875 C6.49202393 0.07418701 6.49202393 0.07418701 8.06201172 0.10205078 C12.95013672 0.16392578 12.95013672 0.16392578 17.93701172 0.22705078 C17.93701172 13.09705078 17.93701172 25.96705078 17.93701172 39.22705078 C17.60701172 39.22705078 17.27701172 39.22705078 16.93701172 39.22705078 C16.93701172 26.68705078 16.93701172 14.14705078 16.93701172 1.22705078 C8.52201172 1.72205078 8.52201172 1.72205078 -0.06298828 2.22705078 C0.26701172 4.53705078 0.59701172 6.84705078 0.93701172 9.22705078 C0.27701172 8.23705078 -0.38298828 7.24705078 -1.06298828 6.22705078 C-1.72298828 6.88705078 -2.38298828 7.54705078 -3.06298828 8.22705078 C-3.68798828 5.35205078 -3.68798828 5.35205078 -4.06298828 2.22705078 C-2.06298828 0.22705078 -2.06298828 0.22705078 0 0 Z " fill="#6FB0E9" transform="translate(121.06298828125,75.77294921875)"/>
<path d="M0 0 C0 0.99 0 1.98 0 3 C-0.845625 3.01417969 -1.69125 3.02835937 -2.5625 3.04296875 C-10.15353119 3.36213711 -14.99784992 4.33691227 -21 9 C-21.99 9.495 -21.99 9.495 -23 10 C-23.66 9.34 -24.32 8.68 -25 8 C-16.97429214 0.4491861 -10.87760893 -0.31682356 0 0 Z " fill="#DEEDFA" transform="translate(101,62)"/>
<path d="M0 0 C0 9.24 0 18.48 0 28 C-0.66 28 -1.32 28 -2 28 C-2 19.42 -2 10.84 -2 2 C-6.29 2 -10.58 2 -15 2 C-15 1.67 -15 1.34 -15 1 C-13.06263299 0.83179449 -11.12510094 0.66548905 -9.1875 0.5 C-7.56908203 0.36078125 -7.56908203 0.36078125 -5.91796875 0.21875 C-3 0 -3 0 0 0 Z " fill="#646464" transform="translate(401,74)"/>
<path d="M0 0 C0.70125 0.7425 1.4025 1.485 2.125 2.25 C8.57402127 8.41862904 13.26463671 9.68913298 22 10 C21.67 10.66 21.34 11.32 21 12 C10.23280264 12.62721538 10.23280264 12.62721538 5.4375 10.1875 C4.2309375 9.1046875 4.2309375 9.1046875 3 8 C2.38125 7.525625 1.7625 7.05125 1.125 6.5625 C-0.45931015 4.36206924 -0.21394195 2.63861736 0 0 Z " fill="#DEEDFA" transform="translate(80,95)"/>
<path d="M0 0 C0.99 0 1.98 0 3 0 C2.835 0.78375 2.67 1.5675 2.5 2.375 C1.97219931 6.20155501 2.01023378 9.7828036 2.16015625 13.6328125 C1.9849759 16.22206352 1.3041325 17.78041763 0 20 C-2.05701803 16.6042877 -2.26969117 13.9382341 -2.25 10 C-2.25515625 8.96875 -2.2603125 7.9375 -2.265625 6.875 C-2.00499165 4.05402722 -1.45296344 2.39854282 0 0 Z " fill="#C6E0F6" transform="translate(79,79)"/>
<path d="M0 0 C2.5625 0.1875 2.5625 0.1875 4.5625 2.1875 C4.6875 4.8125 4.6875 4.8125 4.5625 7.1875 C1.5925 7.1875 -1.3775 7.1875 -4.4375 7.1875 C-3.40604305 0.26200331 -3.40604305 0.26200331 0 0 Z " fill="#E7E7E7" transform="translate(570.4375,82.8125)"/>
<path d="M0 0 C1.134375 0.020625 2.26875 0.04125 3.4375 0.0625 C3.4375 2.3725 3.4375 4.6825 3.4375 7.0625 C1.10455225 7.10491723 -1.22952567 7.10342937 -3.5625 7.0625 C-4.5625 6.0625 -4.5625 6.0625 -4.6875 3.5625 C-4.4904197 -0.37910609 -4.10054684 0.07193942 0 0 Z " fill="#E7E7E7" transform="translate(296.5625,96.9375)"/>
<path d="M0 0 C2.31 0 4.62 0 7 0 C7 2.31 7 4.62 7 7 C4.69 7 2.38 7 0 7 C-1.125 2.25 -1.125 2.25 0 0 Z " fill="#EDEDED" transform="translate(483,97)"/>
<path d="M0 0 C3.3 0 6.6 0 10 0 C9 4 9 4 8 5 C6.48071962 5.07179964 4.95832518 5.08392007 3.4375 5.0625 C2.61121094 5.05347656 1.78492188 5.04445313 0.93359375 5.03515625 C0.29550781 5.02355469 -0.34257813 5.01195312 -1 5 C-0.67 3.35 -0.34 1.7 0 0 Z " fill="#1378DA" transform="translate(59,56)"/>
<path d="M0 0 C0.66 0.33 1.32 0.66 2 1 C1.34 1.66 0.68 2.32 0 3 C13.365 3.495 13.365 3.495 27 4 C27 4.33 27 4.66 27 5 C15.45 5 3.9 5 -8 5 C-6.35197949 1.70395897 -3.32254422 1.22409524 0 0 Z " fill="#0287DF" transform="translate(110,111)"/>
<path d="M0 0 C4.32204601 3.26554587 7.20728815 5.72145956 9 11 C9.2260541 14.3506241 9.17885196 17.64818176 9 21 C8.67 21 8.34 21 8 21 C7.67 18.03 7.34 15.06 7 12 C6.34 12 5.68 12 5 12 C4.401875 10.906875 3.80375 9.81375 3.1875 8.6875 C1.70955303 6.08925871 0.30177067 3.95650507 -2 2 C-1.34 2 -0.68 2 0 2 C0 1.34 0 0.68 0 0 Z " fill="#BEDCF5" transform="translate(105,73)"/>
<path d="M0 0 C2.97 0 5.94 0 9 0 C9.66 1.65 10.32 3.3 11 5 C9.54207116 5.05399736 8.08357288 5.09279177 6.625 5.125 C5.81289062 5.14820313 5.00078125 5.17140625 4.1640625 5.1953125 C2 5 2 5 0 3 C0 2.01 0 1.02 0 0 Z " fill="#0772D9" transform="translate(122,56)"/>
<path d="M0 0 C0.99 0 1.98 0 3 0 C3.66 1.32 4.32 2.64 5 4 C8.3 4 11.6 4 15 4 C15 4.66 15 5.32 15 6 C10.28467127 7.9551363 6.96441396 8.33657299 2 7 C0.05758039 4.4664092 0 3.21812786 0 0 Z " fill="#D5E8F8" transform="translate(119,56)"/>
<path d="M0 0 C0.99 0 1.98 0 3 0 C2.6875 2.375 2.6875 2.375 2 5 C-1.45214853 7.30143236 -2.23479324 7.13833854 -6.1875 6.625 C-7.53908203 6.45871094 -7.53908203 6.45871094 -8.91796875 6.2890625 C-9.94857422 6.14597656 -9.94857422 6.14597656 -11 6 C-11 5.67 -11 5.34 -11 5 C-10.37351563 4.97421875 -9.74703125 4.9484375 -9.1015625 4.921875 C-8.28429688 4.86515625 -7.46703125 4.8084375 -6.625 4.75 C-5.81289063 4.70359375 -5.00078125 4.6571875 -4.1640625 4.609375 C-1.81161073 4.2077908 -1.81161073 4.2077908 -0.7109375 1.953125 C-0.47632812 1.30859375 -0.24171875 0.6640625 0 0 Z " fill="#C6E0F6" transform="translate(69,56)"/>
<path d="M0 0 C1.49080078 0.16628906 1.49080078 0.16628906 3.01171875 0.3359375 C3.77097656 0.43132812 4.53023437 0.52671875 5.3125 0.625 C5.6425 1.615 5.9725 2.605 6.3125 3.625 C5.3225 3.480625 4.3325 3.33625 3.3125 3.1875 C-0.68159465 2.61574821 -4.68282937 2.11680166 -8.6875 1.625 C-5.1388865 -0.74074234 -4.1110475 -0.48365265 0 0 Z " fill="#EBF4FC" transform="translate(98.6875,71.375)"/>
<path d="M0 0 C0.66 0.33 1.32 0.66 2 1 C1.3125 2.9375 1.3125 2.9375 0 5 C-2.91422611 6.07366225 -4.315664 6.31375694 -7.1640625 5.0078125 C-8.07285156 4.50894531 -8.07285156 4.50894531 -9 4 C-7.54618103 3.30300448 -6.08677047 2.61766134 -4.625 1.9375 C-3.40683594 1.36322266 -3.40683594 1.36322266 -2.1640625 0.77734375 C-1.44992188 0.52082031 -0.73578125 0.26429687 0 0 Z " fill="#CDE4F7" transform="translate(109,108)"/>
<path d="M0 0 C0.66 0.33 1.32 0.66 2 1 C1.34 2.32 0.68 3.64 0 5 C-4.29 4.67 -8.58 4.34 -13 4 C-13 3.67 -13 3.34 -13 3 C-12.14535156 2.86722656 -11.29070312 2.73445313 -10.41015625 2.59765625 C-9.30542969 2.42105469 -8.20070313 2.24445313 -7.0625 2.0625 C-5.96035156 1.88847656 -4.85820313 1.71445313 -3.72265625 1.53515625 C-1.09573071 1.28154864 -1.09573071 1.28154864 0 0 Z " fill="#B7D8F4" transform="translate(104,101)"/>
<path d="M0 0 C2.76223278 2.76223278 2.57856291 5.20706617 3 9 C2.34 8.01 1.68 7.02 1 6 C0.34 6.66 -0.32 7.32 -1 8 C-1.625 5.125 -1.625 5.125 -2 2 C-1.34 1.34 -0.68 0.68 0 0 Z " fill="#A6CFF2" transform="translate(119,76)"/>
<path d="M0 0 C0.66 0.33 1.32 0.66 2 1 C-2.30769231 4.93846154 -2.30769231 4.93846154 -5.8125 5.25 C-6.534375 5.1675 -7.25625 5.085 -8 5 C-6.35197949 1.70395897 -3.32254422 1.22409524 0 0 Z " fill="#1984DE" transform="translate(110,111)"/>
<path d="M0 0 C1.875 0.25 1.875 0.25 4 1 C5.25 3.0625 5.25 3.0625 6 5 C4.125 4.75 4.125 4.75 2 4 C0.75 1.9375 0.75 1.9375 0 0 Z " fill="#E0EEFA" transform="translate(76,106)"/>
<path d="M0 0 C3.875 0.875 3.875 0.875 5 2 C5.04063832 3.66617115 5.042721 5.33388095 5 7 C3.29115995 5.37660195 1.62553283 3.70680947 0 2 C0 1.34 0 0.68 0 0 Z " fill="#DDEDF9" transform="translate(111,69)"/>
</svg>
